<svg width="860" height="823" viewBox="0 0 860 823" fill="none" xmlns="http://www.w3.org/2000/svg">
<ellipse cx="430" cy="411.5" rx="430" ry="411.5" fill="#1FD19C"/>
<ellipse cx="362" cy="560" rx="27" ry="30" fill="#1E1E1E"/>
<ellipse cx="529.414" cy="187" rx="71.5" ry="64" fill="#1E1E1E"/>
<ellipse cx="247.5" cy="560" rx="27.5" ry="30" fill="#1E1E1E"/>
<rect width="20.7746" height="204.671" rx="10.3873" transform="matrix(-0.845897 -0.533346 0.467377 -0.884058 362.573 576.238)" fill="#1E1E1E"/>
<rect width="13.5074" height="152.878" rx="6.75371" transform="matrix(-0.845897 0.533346 0.467377 0.884058 179 412)" fill="#1E1E1E"/>
<line x1="563.7" y1="477.813" x2="695.452" y2="597.205" stroke="#1E1E1E" stroke-width="14"/>
<line x1="562.117" y1="346.621" x2="770.117" y2="252.621" stroke="#1E1E1E" stroke-width="14"/>
<line x1="769.723" y1="257.185" x2="635.723" y2="186.185" stroke="#1E1E1E" stroke-width="14"/>
<ellipse cx="362" cy="560" rx="27" ry="30" fill="#1E1E1E"/>
<ellipse cx="179" cy="406.5" rx="31" ry="32.5" fill="#1E1E1E"/>
<ellipse cx="643" cy="166.5" rx="31" ry="32.5" fill="#1E1E1E"/>
<path d="M565 480C729.788 398.259 772.328 293.275 773 251" stroke="black" stroke-width="11"/>
</svg>